<?xml version="1.0" encoding="utf-8"?>
<!-- Generator: Adobe Illustrator 23.0.1, SVG Export Plug-In . SVG Version: 6.00 Build 0)  -->
<svg version="1.1" id="Layer_1" xmlns="http://www.w3.org/2000/svg" xmlns:xlink="http://www.w3.org/1999/xlink" x="0px" y="0px"
	 viewBox="0 0 620 315.96" style="enable-background:new 0 0 620 315.96;" xml:space="preserve">
<style type="text/css">
	.st0{fill:#FFFFFF;}
	.st1{fill:none;stroke:#FFFFFF;stroke-width:2.77;stroke-miterlimit:10;}
</style>
<g>
	<g>
		<path class="st0" d="M65.81,315.56v-45.82h15.62c5.02,0,8.77,1.24,11.14,3.7c2.42,2.5,3.59,5.78,3.59,10.02
			c0,4.59-1.35,7.92-4.13,10.19c-2.82,2.3-6.73,3.46-11.63,3.46H69.19v18.46H65.81z M69.19,294.26h10.67c4.17,0,7.36-1,9.48-2.96
			c2.15-1.99,3.23-4.68,3.23-7.98c0-3.41-1.08-6.09-3.22-7.97c-2.09-1.84-4.96-2.77-8.54-2.77H69.19V294.26z"/>
		<polygon class="st0" points="138.76,315.56 138.76,295.26 110.95,295.26 110.95,315.56 107.56,315.56 107.56,269.74 
			110.95,269.74 110.95,292.42 138.76,292.42 138.76,269.74 142.14,269.74 142.14,315.56 		"/>
		<path class="st0" d="M177.61,315.96c-4.39,0-8.39-1-11.88-2.97c-3.48-1.96-6.23-4.74-8.2-8.27c-1.97-3.54-2.97-7.6-2.97-12.09
			c0-4.48,1-8.55,2.97-12.08c1.96-3.52,4.72-6.32,8.2-8.3c3.49-1.99,7.48-3,11.87-3c4.25,0,8.17,0.99,11.64,2.94
			c3.46,1.94,6.22,4.71,8.2,8.23c1.99,3.54,3,7.65,3,12.22c0,4.57-1.01,8.67-3,12.18c-1.99,3.5-4.74,6.26-8.2,8.2
			C185.78,314.98,181.86,315.96,177.61,315.96z M177.61,272.3c-3.67,0-7.02,0.9-9.95,2.67c-2.93,1.77-5.26,4.22-6.93,7.29
			c-1.66,3.06-2.5,6.55-2.5,10.38c0,3.79,0.84,7.26,2.5,10.31c1.67,3.07,4,5.53,6.93,7.29c2.93,1.77,6.28,2.67,9.95,2.67
			c3.53,0,6.79-0.87,9.71-2.6c2.91-1.72,5.24-4.16,6.94-7.26c1.69-3.08,2.54-6.59,2.54-10.42c0-3.87-0.86-7.4-2.54-10.49
			c-1.7-3.1-4.03-5.54-6.94-7.26C184.4,273.18,181.14,272.3,177.61,272.3z"/>
		<polygon class="st0" points="220.09,315.56 220.09,272.58 205.65,272.58 205.65,269.74 238.12,269.74 238.12,272.58 
			223.48,272.58 223.48,315.56 		"/>
		<path class="st0" d="M266.3,315.96c-4.39,0-8.39-1-11.88-2.97c-3.48-1.96-6.23-4.74-8.2-8.27c-1.97-3.54-2.97-7.6-2.97-12.09
			c0-4.48,1-8.55,2.97-12.08c1.96-3.52,4.72-6.32,8.2-8.3c3.49-1.99,7.48-3,11.87-3c4.25,0,8.17,0.99,11.64,2.94
			c3.46,1.94,6.22,4.71,8.2,8.23c1.99,3.54,3,7.65,3,12.22c0,4.57-1.01,8.67-3,12.18c-1.99,3.5-4.74,6.26-8.2,8.2
			C274.47,314.98,270.55,315.96,266.3,315.96z M266.3,272.3c-3.67,0-7.02,0.9-9.95,2.67c-2.93,1.77-5.26,4.22-6.93,7.29
			c-1.66,3.06-2.5,6.55-2.5,10.38c0,3.79,0.84,7.26,2.5,10.31c1.67,3.07,4,5.53,6.93,7.29c2.93,1.77,6.28,2.67,9.95,2.67
			c3.53,0,6.79-0.87,9.71-2.6c2.91-1.72,5.24-4.16,6.94-7.26c1.69-3.08,2.54-6.59,2.54-10.42c0-3.87-0.86-7.4-2.54-10.49
			c-1.7-3.1-4.03-5.54-6.94-7.26C273.09,273.18,269.83,272.3,266.3,272.3z"/>
		<path class="st0" d="M322.36,315.9c-4.4,0-8.38-0.96-11.82-2.84c-3.43-1.87-6.16-4.58-8.12-8.06c-1.97-3.49-2.97-7.62-2.97-12.28
			c0-4.54,0.95-8.64,2.82-12.18c1.85-3.52,4.52-6.3,7.93-8.28c3.42-1.99,7.44-3,11.96-3c3.27,0,6.46,0.6,9.48,1.79
			c2.59,1.02,4.96,2.52,7.05,4.46l-2.28,2.02c-3.94-3.42-8.75-5.15-14.32-5.15c-3.57,0-6.85,0.85-9.73,2.52
			c-2.9,1.68-5.19,4.11-6.82,7.22c-1.61,3.08-2.43,6.64-2.43,10.6c0,3.82,0.8,7.31,2.39,10.36c1.6,3.08,3.89,5.53,6.81,7.28
			c2.91,1.75,6.29,2.63,10.05,2.63c5.3,0,9.89-1.44,13.64-4.28l0.5-0.38v-12.32h-14.03v-2.84h17.42v17.27
			c-2.06,1.62-4.57,2.93-7.47,3.89C329.27,315.37,325.88,315.9,322.36,315.9z"/>
		<path class="st0" d="M380.03,315.56l-12.8-18.46h-10.59v18.46h-3.38v-45.82h15.89c4.98,0,8.72,1.25,11.11,3.7
			c2.44,2.5,3.62,5.78,3.62,10.01c0,3.66-0.94,6.6-2.79,8.74c-1.87,2.16-4.65,3.64-8.26,4.39l-1.89,0.4l13.05,18.58H380.03z
			 M356.64,294.26h10.88c4.17,0,7.37-0.99,9.51-2.96c2.17-1.99,3.27-4.68,3.27-7.99c0-3.41-1.1-6.1-3.27-7.97
			c-2.11-1.83-5.04-2.76-8.7-2.76h-11.69V294.26z"/>
		<path class="st0" d="M428.75,315.56l-4.36-11.78h-23.37l-4.29,11.78h-3.47l17.36-45.82h4.17l17.42,45.82H428.75z M402.01,301.14
			h21.48l-9.86-26.79h-1.91L402.01,301.14z"/>
		<path class="st0" d="M443.03,315.56v-45.82h15.62c5.02,0,8.77,1.24,11.14,3.7c2.42,2.5,3.59,5.78,3.59,10.02
			c0,4.59-1.35,7.92-4.13,10.19c-2.82,2.3-6.73,3.46-11.63,3.46h-11.22v18.46H443.03z M446.42,294.26h10.67c4.17,0,7.36-1,9.48-2.96
			c2.15-1.99,3.23-4.68,3.23-7.98c0-3.41-1.08-6.09-3.22-7.97c-2.09-1.84-4.96-2.77-8.54-2.77h-11.62V294.26z"/>
		<polygon class="st0" points="515.99,315.56 515.99,295.26 488.17,295.26 488.17,315.56 484.79,315.56 484.79,269.74 
			488.17,269.74 488.17,292.42 515.99,292.42 515.99,269.74 519.37,269.74 519.37,315.56 		"/>
		<polygon class="st0" points="545.34,315.56 545.34,294.88 529.93,269.74 533.75,269.74 546.28,290.51 547.86,290.51 
			560.32,269.74 564.27,269.74 548.73,294.87 548.73,315.56 		"/>
	</g>
	<g>
		<g>
			<path class="st0" d="M278.45,96.37h-39.61c1.41-1.96,3.02-3.8,4.83-5.49c6.77-6.33,15.67-10.16,25.38-10.97L278.45,96.37z"/>
		</g>
		<g>
			<path class="st0" d="M305.23,93.95l-10.42,19.47l-6.46-11.3l-12.74-22.3c10.22,0.57,19.62,4.45,26.69,11.06
				C303.34,91.86,304.32,92.88,305.23,93.95z"/>
		</g>
		<g>
			<path class="st0" d="M314.25,118.84c0,5.79-1.21,11.32-3.53,16.32h-20.43L309,99.25C312.43,105.06,314.25,111.76,314.25,118.84z"
				/>
		</g>
		<g>
			<path class="st0" d="M308.34,140.91l-3.48,3.25l-5.53,5.17c-0.01,0.01-0.01,0.01-0.03,0.02c-6.37,4.86-14.2,7.79-22.64,8.45
				l-9.25-16.88H308.34z"/>
		</g>
		<g>
			<path class="st0" d="M269.98,157.85c-10.08-0.64-19.33-4.51-26.32-11.04c-1.42-1.33-2.72-2.74-3.9-4.25l11.21-18.26
				L269.98,157.85z"/>
		</g>
		<g>
			<path class="st0" d="M257.47,102.12l-21.21,35.06c-2.97-5.51-4.53-11.75-4.53-18.33c0-5.95,1.29-11.62,3.72-16.72H257.47z"/>
		</g>
	</g>
	<path class="st0" d="M319.39,69.43c0,4.52,0,9.04,0,13.57c0,0.64,0,1.28,0,1.92c-5.15-7.95-12.35-14.3-20.88-18.42
		c-9.34-4.51-19.74-6.21-30.06-5.85c-10.06,0.35-20.02,2.76-28.89,7.58c-8.26,4.48-15.28,10.93-20.38,18.83
		c-5.39,8.37-8.34,18.01-8.96,27.92c-0.64,10.1,0.84,20.38,5.01,29.64c3.87,8.6,9.9,16.21,17.46,21.87
		c7.92,5.92,17.31,9.74,27.05,11.31c10.26,1.66,21.06,1.15,31-1.97c9.15-2.88,17.49-8,23.8-15.26c1.5-1.73,2.89-3.57,4.15-5.49
		c0,4.92,0,9.84,0,14.77c0,8.9-0.96,18.1-5.05,26.14c-1.89,3.72-4.47,7.07-7.68,9.75c-3.32,2.76-7.21,4.76-11.29,6.13
		c-4.91,1.66-10.07,2.46-15.23,2.79c-6.13,0.39-12.31,0.15-18.38-0.79c-11.51-1.78-22.93-6.03-32.2-13.19
		c-1.04-0.81-2.06-1.65-3.04-2.53c-1.99,2.98-3.97,5.96-5.96,8.94c-0.53,0.8-1.06,1.59-1.59,2.39c-0.15,0.23-0.77,0.87-0.77,1.15
		c0,0.29,1.03,0.99,1.27,1.19c0.68,0.59,1.37,1.16,2.08,1.71c1.48,1.15,3.02,2.23,4.61,3.23c7.02,4.43,14.89,7.44,22.91,9.49
		c8.72,2.23,17.72,3.22,26.71,3.16c7.8-0.05,15.66-0.83,23.2-2.93c6.28-1.75,12.33-4.47,17.53-8.42c4.88-3.71,8.87-8.45,11.79-13.83
		c3.26-6.01,5.2-12.66,6.3-19.39c0.9-5.5,1.22-11.07,1.22-16.63c0-1.44,0-2.87,0-4.31c0-2.85,0-5.7,0-8.55c0-3.89,0-7.78,0-11.67
		c0-4.53,0-9.06,0-13.59c0-4.84,0-9.68,0-14.51c0-4.75,0-9.5,0-14.25c0-4.29,0-8.58,0-12.86c0-3.44,0-6.87,0-10.31
		c0-2.24,0-4.48,0-6.72c0-0.55,0-1.1,0-1.65c0-0.37,0.07-0.36-0.32-0.36c-4.02-0.08-8.04,0-12.06,0
		C321.63,69.43,320.51,69.43,319.39,69.43z M233.48,94.91c4.72-7.49,11.77-13.11,19.96-16.39c9.06-3.64,19.33-4.4,28.93-2.78
		c9.23,1.56,18,5.79,24.62,12.47c6.48,6.53,10.49,15.18,11.71,24.27c1.31,9.74-0.05,20.05-4.71,28.77
		c-4.1,7.67-10.44,13.76-18.2,17.68c-8.67,4.38-18.59,5.84-28.22,4.97c-9.39-0.85-18.54-4.29-25.8-10.38
		c-7.08-5.94-11.93-14.28-13.9-23.28c-2.08-9.49-1.44-19.93,2.3-28.93C231.1,99.06,232.24,96.97,233.48,94.91z"/>
	<path class="st0" d="M16.74,48.65c0,13.96,9.27,23.53,27.81,28.72c17.18,4.34,34.37,8.64,51.55,12.89
		c18.46,7.58,27.69,21.11,27.69,40.59c0,14.47-6.98,26.38-20.95,35.74c-12.35,8.26-26.15,12.38-41.39,12.38
		c-16.1,0-29.94-4.21-41.52-12.65C7.15,156.96,0.51,144.53,0,129.03h16.59c0.51,11.45,5.32,20.07,14.42,25.83
		c7.82,4.92,17.86,7.38,30.11,7.38c11.65,0,21.73-2.38,30.24-7.15c10.46-5.87,15.7-14.13,15.7-24.76c0-13.96-9.23-23.66-27.69-29.1
		C62.18,96.89,45,92.5,27.82,88.08C9.27,80.59,0,67.44,0,48.64c0-14.98,6.64-27.1,19.93-36.38C31.77,4.09,45.48,0,61.06,0
		c16.78,0,31,4,42.67,12.01c13.37,9.2,20.06,21.84,20.06,37.94H107.2c0-11.71-4.76-20.45-14.29-26.21c-7.74-4.67-17.86-7-30.37-7
		C32,16.74,16.74,27.37,16.74,48.65z"/>
	<path class="st0" d="M391.1,6.65c-2.52-2.41-5.53-3.61-9.04-3.61c-3.4,0-6.41,1.23-9.04,3.7s-3.95,5.39-3.95,8.79
		c0,3.39,1.32,6.32,3.95,8.79s5.64,3.7,9.04,3.7c3.5,0,6.52-1.2,9.04-3.61c2.52-2.41,3.78-5.37,3.78-8.87
		C394.88,12.02,393.62,9.06,391.1,6.65z M175.85,6.65c-2.52-2.41-5.53-3.61-9.04-3.61c-3.4,0-6.41,1.23-9.04,3.7
		c-2.62,2.47-3.94,5.39-3.94,8.79c0,3.39,1.32,6.32,3.94,8.79c2.63,2.47,5.64,3.7,9.04,3.7c3.5,0,6.52-1.2,9.04-3.61
		c2.52-2.41,3.78-5.37,3.78-8.87C179.63,12.02,178.37,9.06,175.85,6.65z"/>
	<path class="st0" d="M359.92,53.91h32.83v122.26h-16.74V70.65h-16.1V53.91z"/>
	<path class="st0" d="M457.32,53.91h30.66v16.73h-30.66v75.9c0,8.93,6.19,13.39,18.57,13.39c1.52,0,3.65-0.08,6.36-0.26
		c2.71-0.17,4.62-0.25,5.73-0.25v16.73h-18.01c-8.35,0-15.33-2.85-20.95-8.55c-5.62-5.7-8.43-12.72-8.43-21.05V70.65h-19.16V53.99
		c9.57,0,15.43-2.18,17.56-6.53c1.11-2.22,1.67-8.84,1.67-19.86h16.67V53.91z"/>
	<path class="st0" d="M597.01,86.08c0-5.61-4.29-10.34-12.86-14.16c-7.05-3.06-13.8-4.59-20.25-4.59
		c-21.15,0-34.27,7.41-39.36,22.23l-16.05-3.45c2.3-12.09,8.9-21.16,19.8-27.21c9.2-5.19,20.48-7.79,33.85-7.79
		c11.07,0,21.89,2.55,32.45,7.66c12.86,6.22,19.29,14.22,19.29,24.02v73.97c0,3.41,2.04,5.28,6.13,5.62
		c-0.17,2.73-0.38,8.22-0.64,16.48c-9.2-0.51-15.63-4.22-19.29-11.11c-10.47,7.41-24.02,11.11-40.62,11.11
		c-34.66,0-51.99-11.7-51.99-35.09c0-6.29,2.12-12.59,6.37-18.89c6.03-9.1,14.44-15.06,25.22-17.86c5.35-1.44,15.03-2.34,29.04-2.68
		c11.72-0.34,20.17-1.91,25.35-4.72c2.21-1.19,3.44-3.15,3.69-5.87C597.05,94.67,597.01,92.12,597.01,86.08z M558.49,162.11
		c7.65,0,15.35-1.31,23.08-3.94c10.37-3.47,15.56-8.22,15.56-14.23V116c-0.17,1.28-7.48,2.13-21.94,2.55
		c-11.39,0.42-19.6,1.19-24.61,2.29c-9.35,1.95-16.28,5.84-20.79,11.68c-3.15,4.06-4.72,7.87-4.72,11.43
		C525.08,156.06,536.22,162.11,558.49,162.11z"/>
	<polygon class="st0" points="191.39,159.51 191.39,176.16 158.23,176.16 158.23,53.91 174.97,53.91 174.97,159.51 	"/>
	<line class="st1" x1="572.28" y1="292.58" x2="620" y2="292.58"/>
	<line class="st1" x1="0" y1="292.58" x2="47.72" y2="292.58"/>
</g>
</svg>
