<?xml version="1.0" encoding="utf-8"?>
<!-- Generator: Adobe Illustrator 23.0.1, SVG Export Plug-In . SVG Version: 6.00 Build 0)  -->
<svg version="1.1" id="Capa_1" xmlns="http://www.w3.org/2000/svg" xmlns:xlink="http://www.w3.org/1999/xlink" x="0px" y="0px"
	 viewBox="0 0 512 392" style="enable-background:new 0 0 512 392;" xml:space="preserve">
<style type="text/css">
	.st0{fill:#151517;}
</style>
<g>
	<g>
		<path class="st0" d="M467,20.6H45c-24.8,0-45,20.2-45,45v260.8c0,24.8,20.2,45,45,45h422c24.8,0,45-20.2,45-45V65.6
			C512,40.8,491.8,20.6,467,20.6z M461.1,50.6l-6,5L273.9,206.6c-10.3,8.6-25.4,8.6-35.7,0L56.9,55.6l-6-5H461.1z M30,72.3
			l147.7,123L30,293.5V72.3z M467,341.4H45c-7.2,0-13.3-5.2-14.7-12l171.4-114.1l17.2,14.3c10.7,8.9,23.9,13.4,37.1,13.4
			c13.2,0,26.3-4.5,37.1-13.4l17.2-14.3l171.4,114.1C480.3,336.2,474.2,341.4,467,341.4z M482,293.5l-147.7-98.3L482,72.3V293.5z"/>
	</g>
</g>
</svg>
